<svg xmlns="http://www.w3.org/2000/svg" viewBox="0 0 140 140" enable-background="new 0 0 140 140"><path fill="#CE1426" d="M0 0h140v140h-140v-140z"/><polygon fill="#fff" points="66.2,26.2 53.5,26 63.9,33.8 59.7,46.4 69.9,38.4 80.1,46.5 76.1,33.8 86.5,26.2 73.8,26.3 70.1,13.5"/><polygon fill="#fff" points="106.2,66.2 93.5,66 103.9,73.8 99.7,86.4 109.9,78.4 120.1,86.5 116.1,73.8 126.5,66.2 113.8,66.3 110.1,53.5"/><polygon fill="#fff" points="106.2,106.2 93.5,106 103.9,113.8 99.7,126.4 109.9,118.4 120.1,126.5 116.1,113.8 126.5,106.2 113.8,106.3 110.1,93.5"/><polygon fill="#fff" points="66.2,106.2 53.5,106 63.9,113.8 59.7,126.4 69.9,118.4 80.1,126.5 76.1,113.8 86.5,106.2 73.8,106.3 70.1,93.5"/><polygon fill="#fff" points="26.2,106.2 13.5,106 23.9,113.8 19.7,126.4 29.9,118.4 40.1,126.5 36.1,113.8 46.5,106.2 33.8,106.3 30.1,93.5"/></svg>